<svg width="300" height="254" viewBox="0 0 300 254" fill="none" xmlns="http://www.w3.org/2000/svg">
<g clip-path="url(#clip0)">
<path d="M295.961 86.6081C296.313 87.9823 296.643 89.3635 296.951 90.7516H192.212V86.6081H295.961Z" fill="#BABAF5"/>
<path d="M292.623 75.6857C290.936 70.9289 288.97 66.2759 286.734 61.751C286.046 60.3558 285.332 58.9746 284.591 57.6074C284.469 57.3728 284.339 57.1382 284.209 56.9036V87.7393H293.26V77.5207L292.623 75.6857Z" fill="#DCDCFA"/>
<path d="M286.734 61.751H284.209V57.6074H284.591C285.333 58.9732 286.048 60.3544 286.734 61.751Z" fill="#BABAF5"/>
<path d="M292.623 75.6857H284.209V79.8292H293.26V77.5207L292.623 75.6857Z" fill="#BABAF5"/>
<path d="M279.308 51.9586H270.259V87.7397H279.308V51.9586Z" fill="#BABAF5"/>
<path d="M279.308 57.6082H270.259V61.7513H279.308V57.6082Z" fill="#DCDCFA"/>
<path d="M279.308 75.6871H270.259V79.8302H279.308V75.6871Z" fill="#DCDCFA"/>
<path d="M238.041 51.7503H205.579C205.079 51.7511 204.599 51.9499 204.245 52.3033C203.892 52.6567 203.692 53.1358 203.692 53.6356V86.0634C203.692 86.2478 203.719 86.4312 203.771 86.6081C203.889 86.9955 204.128 87.3349 204.454 87.5763C204.779 87.8177 205.174 87.9482 205.579 87.9487H238.041C238.446 87.9483 238.841 87.8177 239.166 87.5764C239.492 87.335 239.731 86.9955 239.849 86.6081C239.901 86.4312 239.928 86.2478 239.928 86.0634V53.6356C239.928 53.1358 239.729 52.6567 239.375 52.3033C239.021 51.9499 238.541 51.7511 238.041 51.7503V51.7503Z" fill="#DCDCFA"/>
<path d="M235.734 54.0546H207.886C207.385 54.0554 206.906 54.2543 206.552 54.6077C206.198 54.9611 205.999 55.4402 205.998 55.94V83.7591C205.999 84.2589 206.198 84.738 206.552 85.0914C206.906 85.4448 207.385 85.6437 207.886 85.6444H235.734C236.235 85.6437 236.714 85.4448 237.068 85.0914C237.422 84.738 237.621 84.2589 237.622 83.7591V55.94C237.621 55.4402 237.422 54.9611 237.068 54.6077C236.714 54.2543 236.235 54.0554 235.734 54.0546V54.0546Z" fill="white"/>
<path d="M230.878 58.9062H212.742C212.242 58.907 211.763 59.1059 211.409 59.4593C211.055 59.8127 210.856 60.2918 210.855 60.7916V78.9076C210.856 79.4073 211.055 79.8864 211.409 80.2399C211.763 80.5933 212.242 80.7921 212.742 80.7929H230.878C231.377 80.7903 231.856 80.5908 232.209 80.2378C232.563 79.8848 232.762 79.4068 232.765 78.9076V60.7916C232.764 60.2918 232.565 59.8127 232.211 59.4593C231.858 59.1059 231.378 58.907 230.878 58.9062V58.9062Z" fill="#BABAF5"/>
<path d="M229.76 75.7122L225.929 69.0846C225.856 68.9572 225.75 68.8514 225.622 68.7779C225.495 68.7044 225.35 68.6656 225.203 68.6656C225.055 68.6656 224.911 68.7044 224.783 68.7779C224.656 68.8514 224.55 68.9572 224.476 69.0846L221.679 73.9241L218.011 67.5779C217.937 67.4506 217.832 67.3448 217.704 67.2713C217.577 67.1977 217.432 67.159 217.285 67.159C217.137 67.159 216.993 67.1977 216.865 67.2713C216.738 67.3448 216.632 67.4506 216.558 67.578L212.728 74.2056L208.171 82.09H216.96L216.089 83.5966H234.317L229.76 75.7122Z" fill="white"/>
<path d="M228.408 65.5177C229.865 65.5177 231.047 64.3373 231.047 62.8812C231.047 61.4252 229.865 60.2448 228.408 60.2448C226.95 60.2448 225.768 61.4252 225.768 62.8812C225.768 64.3373 226.95 65.5177 228.408 65.5177Z" fill="white"/>
<path d="M299.967 115.885C299.937 114.26 299.873 112.642 299.774 111.034C299.732 110.263 299.681 109.496 299.619 108.729H281.911C281.411 108.73 280.931 108.929 280.577 109.282C280.224 109.636 280.024 110.115 280.024 110.615V143.042C280.023 143.191 280.041 143.339 280.078 143.482C280.177 143.894 280.412 144.26 280.744 144.522C281.077 144.784 281.488 144.927 281.911 144.928H298.234C298.318 144.45 298.398 143.964 298.469 143.482C298.515 143.197 298.562 142.908 298.604 142.623C298.704 141.941 298.801 141.258 298.889 140.575C299.015 139.645 299.128 138.71 299.228 137.772C299.597 134.408 299.835 131.007 299.941 127.57V127.566C299.979 126.271 299.999 124.971 300 123.665V118.638C300 117.716 299.992 116.799 299.967 115.885Z" fill="#DCDCFA"/>
<path d="M299.967 115.885C299.937 114.26 299.873 112.642 299.774 111.034H284.218C283.717 111.034 283.238 111.233 282.884 111.587C282.53 111.94 282.331 112.419 282.33 112.919V140.738C282.331 141.238 282.53 141.717 282.884 142.07C283.238 142.424 283.717 142.623 284.218 142.623H298.604C298.704 141.941 298.801 141.258 298.889 140.575C299.015 139.645 299.128 138.71 299.228 137.772C299.597 134.408 299.835 131.007 299.941 127.57V127.566C299.979 126.271 299.999 124.971 300 123.665V118.638C300 117.716 299.992 116.799 299.967 115.885Z" fill="white"/>
<path d="M299.967 115.885H289.075C288.574 115.886 288.095 116.085 287.741 116.438C287.387 116.792 287.188 117.271 287.187 117.771V135.887C287.188 136.386 287.387 136.865 287.741 137.219C288.095 137.572 288.574 137.771 289.075 137.772H299.228C299.597 134.408 299.835 131.007 299.941 127.57V127.566C299.979 126.271 299.999 124.971 300 123.665V118.638C300 117.716 299.992 116.799 299.967 115.885Z" fill="#BABAF5"/>
<path d="M299.941 127.57C299.837 131.006 299.599 134.406 299.228 137.772C299.128 138.71 299.015 139.645 298.889 140.575H292.421L293.294 139.071H284.503L287.187 134.424L289.058 131.186L292.891 124.558C292.964 124.43 293.07 124.324 293.197 124.25C293.325 124.176 293.469 124.137 293.617 124.137C293.764 124.137 293.909 124.176 294.036 124.25C294.164 124.324 294.269 124.43 294.342 124.558L298.012 130.905L299.941 127.57Z" fill="white"/>
<path d="M268.163 33.8816H192.212V29.738H264.397C265.68 31.0913 266.935 32.4725 268.163 33.8816Z" fill="#BABAF5"/>
<path d="M232.555 5.1449C235.651 6.84589 238.667 8.66837 241.606 10.6124V30.8651H232.555V5.1449Z" fill="#BABAF5"/>
<path d="M241.604 18.8139H232.555V22.957H241.604V18.8139Z" fill="#DCDCFA"/>
<path d="M255.556 21.254V30.865H246.505V14.0185C248.614 15.5561 250.677 17.1551 252.691 18.8156C253.656 19.6117 254.61 20.4244 255.556 21.254Z" fill="#DCDCFA"/>
<path d="M255.556 21.254V22.955H246.505V18.8156H252.691C253.656 19.6116 254.61 20.4244 255.556 21.254Z" fill="#BABAF5"/>
<path d="M223.316 0.527898C225.711 1.60461 228.065 2.75257 230.378 3.97178L228.516 7.72568L222.33 20.215L220.489 23.927L217.608 29.738L216.974 31.0159L214.395 29.738L208.867 27.0022L212.378 19.9133H212.382L214.219 16.2013L220.409 3.71201L222.23 0.0418989L222.25 0L223.316 0.527898Z" fill="#DCDCFA"/>
<path d="M230.358 4.00948L228.516 7.72568L220.409 3.71201L222.229 0.0418963L222.25 0L223.316 0.527894L230.358 4.00948Z" fill="#BABAF5"/>
<path d="M214.219 16.2024L212.379 19.9154L220.488 23.9261L222.329 20.2132L214.219 16.2024Z" fill="#BABAF5"/>
<path d="M298.469 143.482C298.398 143.964 298.318 144.45 298.234 144.928C298.088 145.833 297.928 146.729 297.756 147.626H192.212V143.482H298.469Z" fill="#BABAF5"/>
<path d="M241.604 108.832H232.555V144.613H241.604V108.832Z" fill="#DCDCFA"/>
<path d="M241.604 114.481H232.555V118.625H241.604V114.481Z" fill="#BABAF5"/>
<path d="M241.604 132.56H232.555V136.703H241.604V132.56Z" fill="#CCCCCC"/>
<path d="M255.555 108.832H246.506V144.613H255.555V108.832Z" fill="#BABAF5"/>
<path d="M255.555 114.481H246.506V118.625H255.555V114.481Z" fill="#DCDCFA"/>
<path d="M255.555 132.56H246.506V136.703H255.555V132.56Z" fill="#DCDCFA"/>
<path d="M224.758 108.684L208.866 140.75L216.975 144.761L232.868 112.695L224.758 108.684Z" fill="#DCDCFA"/>
<path d="M222.249 113.747L220.409 117.46L228.518 121.471L230.358 117.758L222.249 113.747Z" fill="#CCCCCC"/>
<path d="M214.219 129.949L212.379 133.662L220.488 137.673L222.329 133.96L214.219 129.949Z" fill="#CCCCCC"/>
<path d="M122.802 159.45C123.18 159.667 123.54 159.914 123.88 160.188L161.219 148.58L163.324 139.326L177.721 140.675L175.587 157.42C175.414 158.772 174.807 160.033 173.857 161.011C172.907 161.99 171.664 162.635 170.316 162.848L126.373 169.798C125.732 171.35 124.633 172.67 123.222 173.583C121.812 174.496 120.156 174.959 118.476 174.909C116.796 174.859 115.171 174.299 113.817 173.305C112.463 172.31 111.444 170.926 110.896 169.339C110.348 167.752 110.297 166.035 110.75 164.418C111.202 162.801 112.137 161.36 113.429 160.286C114.722 159.213 116.311 158.558 117.985 158.408C119.659 158.259 121.339 158.622 122.802 159.45V159.45Z" fill="#FFB8B8"/>
<path d="M184.374 146.227L184.126 142.003V141.999L184.059 140.843L183.33 128.408C183.548 125.816 182.729 123.243 181.052 121.252C179.376 119.261 176.978 118.016 174.384 117.787C173.637 117.721 172.886 117.74 172.144 117.846C169.94 118.157 167.907 119.203 166.373 120.814C164.839 122.424 163.894 124.506 163.693 126.72L162.179 133.012L159.532 144.019C159.345 144.789 159.422 145.599 159.753 146.32C160.083 147.041 160.647 147.629 161.353 147.99C161.76 148.205 162.206 148.336 162.665 148.376L167.077 148.77L171.326 149.147L176.229 149.582L176.581 149.612L177.487 149.696L180.519 149.964H180.528C181.034 150.004 181.544 149.937 182.022 149.767C182.501 149.597 182.938 149.327 183.304 148.975C183.571 148.715 183.796 148.416 183.971 148.087C184.277 147.517 184.417 146.872 184.374 146.227V146.227Z" fill="#6D6DC8"/>
<path d="M225.348 95.0177C225.348 109.357 212.075 107.188 195.702 107.188C179.329 107.188 166.056 109.357 166.056 95.0177C166.056 80.6786 172.54 55.2614 195.702 55.2614C219.663 55.2614 225.348 80.6786 225.348 95.0177Z" fill="#2F2E41"/>
<path d="M209.709 101.327C217.499 93.5451 217.499 80.9276 209.709 73.1454C201.919 65.3631 189.288 65.3631 181.497 73.1454C173.707 80.9276 173.707 93.5451 181.497 101.327C189.288 109.11 201.919 109.11 209.709 101.327Z" fill="#FFB8B8"/>
<path d="M223.685 115.542C223.301 115.172 222.893 114.828 222.464 114.511C219.752 112.464 216.344 111.563 212.973 112.001L176.212 116.648C172.845 117.065 169.773 118.777 167.647 121.418C165.521 124.06 164.509 127.425 164.825 130.8C164.93 131.973 165.048 133.209 165.177 134.496C165.345 136.109 165.534 137.801 165.752 139.552C166.113 142.498 166.553 145.606 167.078 148.77C167.535 151.493 168.055 154.254 168.65 156.981C168.822 157.769 169.001 158.554 169.187 159.336C169.187 159.338 169.187 159.34 169.188 159.343C169.188 159.345 169.19 159.347 169.191 159.348C169.212 159.445 169.233 159.541 169.258 159.633C169.257 159.641 169.259 159.648 169.263 159.654C169.523 160.744 169.795 161.82 170.081 162.884C170.189 163.278 170.294 163.668 170.403 164.053C170.697 165.101 171.007 166.127 171.326 167.137C173.721 174.649 176.887 181.047 181.069 184.449C181.123 184.499 181.178 184.541 181.237 184.587L181.405 184.717L181.648 184.641L182.679 184.335L183.56 184.067L195.035 180.619L197.891 179.76L207.068 176.999H207.072L215.465 174.477L216.488 174.167L223.697 172.001L223.928 169.311L224.239 165.742L224.423 163.597L225.883 146.679L226.734 136.808L227.657 126.091C227.828 124.148 227.56 122.191 226.873 120.365C226.185 118.539 225.096 116.891 223.685 115.542V115.542Z" fill="#0C0C4E"/>
<path d="M244.24 197.403C244.143 197.122 244.051 196.841 243.955 196.565C239.643 183.996 233.285 174.49 223.928 169.311C223.924 169.311 223.924 169.307 223.92 169.307L223.76 169.219L215.607 172.039L214.601 172.387L213.552 172.751L213.539 172.755L205.906 175.395L205.894 175.399L199.904 177.469H199.9L194.36 179.383H194.356L193.068 179.832L183.384 183.179L182.26 183.569L181.253 183.916L181.098 183.971L181.069 184.449L180.377 196.565L180.331 197.403L179.467 212.523L150.775 253.125H170.403C176.98 253.126 183.548 252.626 190.048 251.629L208.464 231.804C208.619 231.644 208.814 231.53 209.029 231.473C209.243 231.416 209.469 231.419 209.683 231.481C209.896 231.543 210.088 231.662 210.239 231.825C210.389 231.989 210.492 232.19 210.536 232.407L213.242 245.814C226.569 241.106 239.036 234.254 250.149 225.528C248.858 215.117 246.97 205.627 244.24 197.403Z" fill="#0C0C4E"/>
<path d="M172.554 85.2815H180.444L183.925 75.5452L184.621 85.2815H188.392L190.423 79.602L190.829 85.2815H218.85C218.85 82.5112 218.304 79.7681 217.243 77.2087C216.182 74.6493 214.626 72.3238 212.665 70.3649C210.704 68.4061 208.376 66.8522 205.814 65.7921C203.252 64.7319 200.506 64.1863 197.733 64.1863H193.672C188.071 64.1863 182.7 66.4088 178.739 70.3649C174.779 74.321 172.554 79.6867 172.554 85.2815V85.2815Z" fill="#2F2E41"/>
<path d="M124.023 190.862C122.734 191.402 121.343 191.654 119.947 191.6C118.551 191.545 117.184 191.186 115.942 190.546C114.7 189.907 113.613 189.003 112.759 187.899C111.904 186.794 111.303 185.516 110.996 184.155L77.2482 180.337L88.5609 166.804L118.874 172.504C121.198 172.142 123.575 172.643 125.554 173.914C127.533 175.184 128.976 177.136 129.611 179.399C130.245 181.662 130.027 184.078 128.997 186.191C127.967 188.304 126.197 189.966 124.023 190.862L124.023 190.862Z" fill="#A0616A"/>
<path d="M105.827 165.813L91.5632 163.266L90.5274 163.081C89.6995 162.934 88.9124 162.613 88.2176 162.139C87.5228 161.666 86.9361 161.052 86.496 160.336C86.056 159.62 85.7725 158.819 85.6642 157.986C85.5559 157.153 85.6253 156.307 85.8678 155.502L92.8718 132.254L93.0815 131.563C93.956 128.608 93.8003 125.444 92.6398 122.589C91.4794 119.734 89.383 117.357 86.6939 115.848C84.8737 114.838 82.8448 114.261 80.7651 114.162C78.6854 114.063 76.6109 114.445 74.7029 115.278C72.795 116.11 71.105 117.371 69.7644 118.963C68.4238 120.554 67.4687 122.433 66.9734 124.453L58.0401 160.873L57.7088 162.223C57.0848 164.764 57.0168 167.41 57.5093 169.98C58.0018 172.55 59.0433 174.983 60.5627 177.115C62.0822 179.246 64.0438 181.025 66.314 182.33C68.5841 183.636 71.1094 184.437 73.7175 184.679C73.7468 184.683 73.772 184.683 73.8015 184.687L79.1489 185.161L86.0857 185.777L94.8095 186.552L102.95 187.277C104.017 187.373 105.08 187.066 105.93 186.415C106.78 185.765 107.354 184.819 107.539 183.766C107.551 183.707 107.559 183.648 107.568 183.59L109.296 170.702L109.313 170.585C109.462 169.494 109.182 168.387 108.532 167.498C107.882 166.608 106.913 166.004 105.827 165.813V165.813Z" fill="#CCCCCC"/>
<path d="M83.8511 68.1659C78.1569 79.3493 73.6692 90.8838 61.1092 90.8838C55.0776 90.8838 49.2931 88.4904 45.0281 84.2299C40.7632 79.9695 38.3672 74.1911 38.3672 68.1659C38.3672 55.6192 48.55 45.6051 61.1092 45.448C73.8737 45.2884 94.4495 47.3503 83.8511 68.1659Z" fill="#2F2E41"/>
<path d="M98.1355 214.467L97.6194 209.322L97.2336 209.343L29.4197 212.607L29.5958 217.815L29.8938 226.734C40.3869 234.719 52.0396 241.056 64.4486 245.525L64.8891 242.115C64.9275 241.837 65.061 241.581 65.2668 241.39C65.4726 241.199 65.7381 241.085 66.0184 241.067C66.2987 241.049 66.5765 241.129 66.8048 241.292C67.0331 241.456 67.1979 241.693 67.2712 241.964L68.609 246.945C79.4187 250.428 90.6441 252.458 101.99 252.983L98.1355 214.467Z" fill="#0C0C4E"/>
<path d="M76.3343 85.4896C84.1247 77.7074 84.1247 65.0899 76.3343 57.3076C68.5438 49.5254 55.9129 49.5254 48.1224 57.3076C40.3319 65.0899 40.3319 77.7074 48.1224 85.4896C55.9129 93.2719 68.5438 93.2719 76.3343 85.4896Z" fill="#A0616A"/>
<path d="M102.032 209.67L98.0767 197.403L98.0095 197.193L97.8082 196.565L96.68 193.071C96.3151 191.935 95.9669 190.796 95.644 189.652C95.3462 188.621 95.068 187.588 94.8095 186.552C94.4404 185.111 94.1049 183.664 93.8029 182.211C92.7794 177.331 92.0969 172.385 91.7604 167.409C91.668 166.031 91.6023 164.65 91.5632 163.266C91.3175 154.783 92.082 146.301 93.8406 137.998C95.3716 130.818 94.5539 123.337 91.5079 116.657C88.462 109.976 83.3489 104.45 76.9218 100.891C72.7044 98.5621 68.0364 97.1635 63.2323 96.7889C62.901 96.7638 62.5696 96.7428 62.2342 96.7219C57.1594 96.4016 52.0773 97.2239 47.3633 99.1281C42.6492 101.032 38.4234 103.97 34.9979 107.724C33.1632 109.72 31.5696 111.925 30.2501 114.293C26.5889 120.883 25.2144 128.498 26.3413 135.949L31.0553 167.569L29.9818 180.879L28.7152 196.565L28.648 197.403L27.2974 214.128C27.2335 214.908 27.4224 215.687 27.8364 216.351C28.2503 217.015 28.8672 217.528 29.5958 217.815C30.0225 217.986 30.4783 218.072 30.938 218.07C31.0051 218.07 31.068 218.07 31.1352 218.066L98.1354 214.467L98.7478 214.434C99.3066 214.405 99.8514 214.248 100.34 213.975C100.828 213.702 101.247 213.321 101.565 212.86C101.882 212.4 102.089 211.873 102.17 211.32C102.251 210.766 102.204 210.202 102.032 209.67L102.032 209.67Z" fill="#BABAF5"/>
<path d="M83.3971 60.1365C78.8386 63.2751 73.4279 64.9455 67.8914 64.9234C69.8663 66.2913 72.1146 67.2153 74.4814 67.6317C67.1203 69.209 59.5126 69.2517 52.1342 67.7571C50.4941 67.4944 48.9116 66.9515 47.456 66.1521C46.0393 65.293 44.8542 63.9251 44.5685 62.2943C44.0782 59.4964 46.2607 56.9543 48.5288 55.2412C52.0015 52.6582 56.0055 50.8786 60.2511 50.0311C64.4967 49.1836 68.8779 49.2894 73.0775 50.3408C75.8198 51.0489 78.5669 52.2453 80.3481 54.4452C82.1292 56.6451 82.6568 60.0366 80.9598 62.302L83.3971 60.1365Z" fill="#2F2E41"/>
<path d="M84.417 186.716C83.1409 187.285 81.7556 187.567 80.3586 187.542C78.9616 187.518 77.5869 187.188 76.3313 186.576C75.0758 185.963 73.97 185.083 73.0917 183.998C72.2135 182.912 71.5842 181.647 71.2482 180.293L37.4255 177.205L48.4423 163.431L78.8719 168.475C81.1876 168.062 83.5746 168.511 85.5805 169.739C87.5865 170.967 89.0719 172.886 89.7555 175.135C90.439 177.384 90.2731 179.804 89.2892 181.939C88.3053 184.073 86.5717 185.773 84.4171 186.716L84.417 186.716Z" fill="#A0616A"/>
<path d="M65.6859 162.068L58.0401 160.873L50.3272 159.667C49.4965 159.537 48.7027 159.233 47.9979 158.776C47.2931 158.318 46.6932 157.716 46.2377 157.01C45.7821 156.304 45.4813 155.51 45.3548 154.68C45.2284 153.849 45.2792 153.002 45.504 152.193L52.1977 128.102C53.0077 125.129 52.7833 121.969 51.5612 119.14C50.339 116.311 48.1916 113.98 45.4704 112.529C43.6322 111.55 41.5908 111.011 39.508 110.957C37.4252 110.902 35.3584 111.333 33.4713 112.215C31.5784 113.083 29.9131 114.379 28.6067 115.999C27.3003 117.62 26.3884 119.521 25.9428 121.554L17.5002 159.516C16.9315 162.077 16.9233 164.73 17.4761 167.294C18.029 169.858 19.1298 172.273 20.7034 174.373C22.277 176.473 24.2861 178.208 26.5933 179.461C28.9005 180.713 31.4512 181.453 34.0711 181.629L63.2744 183.585C64.3422 183.658 65.3984 183.328 66.2341 182.66C67.0698 181.992 67.624 181.035 67.787 179.978C67.7997 179.92 67.8038 179.861 67.8122 179.802L69.2593 166.881L69.2718 166.764C69.3965 165.67 69.0929 164.571 68.4246 163.695C67.7562 162.82 66.7749 162.237 65.6859 162.068Z" fill="#BABAF5"/>
<path d="M195.063 142.041L193.313 142.995L171.751 154.747L170 155.701C169.151 156.165 168.521 156.947 168.248 157.875C167.975 158.802 168.081 159.801 168.544 160.65L184.601 190.048C185.066 190.896 185.848 191.526 186.777 191.798C187.706 192.071 188.705 191.965 189.555 191.502L189.56 191.5L214.613 177.845L214.618 177.842C215.467 177.378 216.097 176.596 216.37 175.669C216.643 174.741 216.537 173.743 216.074 172.893L200.017 143.496C199.553 142.647 198.77 142.018 197.841 141.745C196.913 141.472 195.914 141.579 195.063 142.041V142.041Z" fill="#E6E6E6"/>
<path d="M195.567 142.963L193.494 144.092L172.577 155.493L170.504 156.623C169.899 156.953 169.45 157.51 169.256 158.171C169.061 158.831 169.137 159.542 169.467 160.147L185.524 189.545C185.855 190.149 186.412 190.597 187.073 190.791C187.735 190.986 188.446 190.91 189.052 190.581L189.056 190.578L214.11 176.923L214.114 176.92C214.719 176.59 215.168 176.033 215.362 175.373C215.557 174.712 215.481 174.001 215.151 173.396L199.094 143.999C198.764 143.395 198.206 142.946 197.545 142.752C196.884 142.558 196.172 142.633 195.567 142.963V142.963Z" fill="white"/>
<path d="M196.155 151.262C196.077 151.121 195.947 151.017 195.792 150.971C195.637 150.926 195.471 150.943 195.329 151.019L194.494 151.476L185.984 156.114C185.844 156.192 185.739 156.322 185.694 156.476C185.649 156.631 185.667 156.796 185.744 156.938C185.821 157.079 185.951 157.184 186.105 157.23C186.259 157.275 186.425 157.258 186.567 157.182L195.912 152.088C196.053 152.01 196.158 151.88 196.203 151.725C196.249 151.571 196.231 151.404 196.155 151.262Z" fill="#E6E6E6"/>
<path d="M199.338 151.862C199.3 151.792 199.249 151.73 199.187 151.68C199.125 151.63 199.054 151.593 198.977 151.571C198.901 151.549 198.821 151.542 198.741 151.551C198.662 151.56 198.586 151.584 198.516 151.623L186.97 157.916C186.9 157.954 186.838 158.005 186.788 158.068C186.738 158.13 186.701 158.201 186.679 158.277C186.656 158.354 186.649 158.434 186.658 158.513C186.666 158.592 186.69 158.669 186.729 158.739C186.767 158.809 186.819 158.87 186.881 158.92C186.943 158.97 187.014 159.007 187.091 159.03C187.167 159.052 187.248 159.059 187.327 159.051C187.406 159.042 187.483 159.018 187.553 158.98L188.09 158.687L191.449 156.856H191.453L199.095 152.687C199.166 152.649 199.228 152.598 199.279 152.536C199.33 152.474 199.367 152.402 199.39 152.325C199.413 152.248 199.42 152.168 199.411 152.088C199.402 152.009 199.377 151.932 199.338 151.862V151.862Z" fill="#E6E6E6"/>
<path d="M186.79 161.892L183.124 155.176C183.086 155.108 183.023 155.058 182.948 155.037C182.873 155.016 182.794 155.025 182.726 155.062L180.947 156.03L180.025 156.533L175.071 159.231L174.111 159.755C174.043 159.793 173.994 159.856 173.972 159.931C173.951 160.005 173.96 160.085 173.998 160.153L174.233 160.584L177.663 166.869C177.701 166.936 177.763 166.986 177.837 167.007C177.911 167.028 177.99 167.019 178.057 166.982L183.971 163.76L184.894 163.257L186.672 162.29C186.706 162.271 186.736 162.246 186.76 162.216C186.785 162.187 186.803 162.152 186.814 162.115C186.825 162.078 186.828 162.039 186.824 162.001C186.82 161.963 186.808 161.925 186.79 161.892V161.892Z" fill="#E6E6E6"/>
<path d="M200.789 159.784C200.712 159.643 200.583 159.538 200.429 159.493C200.274 159.447 200.109 159.465 199.967 159.541L187.293 166.45C187.181 166.511 187.091 166.606 187.036 166.721C186.981 166.836 186.964 166.965 186.987 167.091C186.996 167.156 187.017 167.218 187.05 167.275C187.082 167.333 187.123 167.385 187.171 167.43L187.175 167.434C187.269 167.519 187.387 167.572 187.512 167.587C187.638 167.602 187.765 167.578 187.876 167.518L200.55 160.61C200.62 160.571 200.682 160.519 200.732 160.457C200.782 160.395 200.819 160.323 200.841 160.246C200.864 160.17 200.87 160.089 200.862 160.01C200.853 159.931 200.828 159.854 200.789 159.784Z" fill="#E6E6E6"/>
<path d="M203.977 160.383C203.938 160.313 203.886 160.252 203.824 160.202C203.762 160.152 203.69 160.115 203.613 160.093C203.537 160.071 203.456 160.064 203.377 160.073C203.297 160.082 203.22 160.106 203.151 160.144L188.274 168.251C188.162 168.31 188.072 168.404 188.017 168.517C187.962 168.631 187.945 168.76 187.968 168.884V168.888C187.977 168.953 187.998 169.016 188.031 169.073C188.063 169.133 188.106 169.186 188.157 169.232C188.25 169.318 188.367 169.372 188.493 169.387C188.619 169.402 188.747 169.377 188.857 169.316L203.734 161.209C203.875 161.131 203.98 161.001 204.026 160.846C204.071 160.691 204.054 160.525 203.977 160.383Z" fill="#E6E6E6"/>
<path d="M183.048 173.175C184.472 173.175 185.627 172.021 185.627 170.598C185.627 169.175 184.472 168.021 183.048 168.021C181.623 168.021 180.468 169.175 180.468 170.598C180.468 172.021 181.623 173.175 183.048 173.175Z" fill="#E6E6E6"/>
<path d="M202.613 130.729L200.862 131.683L179.3 143.435L177.55 144.389C176.701 144.853 176.07 145.635 175.797 146.563C175.524 147.49 175.631 148.489 176.093 149.338L192.15 178.736C192.615 179.584 193.398 180.214 194.326 180.486C195.255 180.759 196.254 180.653 197.104 180.19L197.109 180.188L222.163 166.533L222.167 166.53C223.016 166.066 223.647 165.284 223.92 164.357C224.193 163.429 224.086 162.431 223.623 161.581L207.566 132.184C207.102 131.335 206.319 130.706 205.391 130.433C204.462 130.16 203.463 130.267 202.613 130.729V130.729Z" fill="#CCCCCC"/>
<path d="M203.116 131.651L201.043 132.78L180.126 144.181L178.053 145.311C177.448 145.641 177 146.198 176.805 146.859C176.611 147.519 176.687 148.23 177.016 148.835L193.073 178.233C193.404 178.837 193.961 179.285 194.623 179.479C195.284 179.674 195.995 179.598 196.601 179.269L196.605 179.266L221.659 165.611L221.664 165.608C222.268 165.278 222.717 164.721 222.912 164.061C223.106 163.4 223.03 162.689 222.701 162.084L206.644 132.687C206.313 132.082 205.756 131.634 205.094 131.44C204.433 131.246 203.722 131.321 203.116 131.651Z" fill="white"/>
<path d="M203.704 139.95C203.626 139.809 203.496 139.705 203.341 139.659C203.186 139.614 203.02 139.631 202.878 139.707L198.575 142.054L197.375 142.707L193.534 144.802C193.393 144.88 193.289 145.01 193.244 145.164C193.199 145.319 193.216 145.484 193.293 145.626C193.37 145.767 193.5 145.872 193.654 145.918C193.809 145.963 193.975 145.946 194.117 145.87L198.646 143.403L199.594 142.883L203.461 140.776C203.602 140.698 203.707 140.568 203.753 140.413C203.798 140.259 203.781 140.092 203.704 139.95V139.95Z" fill="#CCCCCC"/>
<path d="M206.888 140.55C206.85 140.48 206.798 140.418 206.736 140.368C206.674 140.318 206.603 140.281 206.526 140.259C206.45 140.237 206.37 140.23 206.291 140.239C206.212 140.248 206.135 140.272 206.066 140.311L200.064 143.583L199.141 144.086L194.519 146.604C194.449 146.642 194.387 146.693 194.338 146.756C194.288 146.818 194.25 146.889 194.228 146.965C194.206 147.042 194.198 147.122 194.207 147.201C194.216 147.28 194.24 147.357 194.278 147.427C194.316 147.497 194.368 147.558 194.43 147.608C194.492 147.658 194.564 147.695 194.64 147.718C194.717 147.74 194.797 147.747 194.876 147.739C194.955 147.73 195.032 147.706 195.102 147.668L199.724 145.15L200.647 144.647L206.644 141.375C206.715 141.337 206.778 141.286 206.828 141.224C206.879 141.162 206.917 141.09 206.939 141.013C206.962 140.936 206.969 140.856 206.96 140.776C206.951 140.697 206.927 140.62 206.888 140.55V140.55Z" fill="#CCCCCC"/>
<path d="M194.339 150.58L191.416 145.225L190.912 144.303L190.673 143.864C190.635 143.796 190.572 143.746 190.497 143.725C190.423 143.704 190.343 143.713 190.275 143.75L184.34 146.985L181.66 148.443C181.593 148.481 181.543 148.544 181.522 148.619C181.501 148.693 181.51 148.773 181.547 148.841L181.786 149.277L182.046 149.758L182.289 150.198V150.202L185.213 155.557C185.25 155.624 185.312 155.674 185.386 155.695C185.46 155.716 185.539 155.707 185.607 155.67L194.221 150.978C194.255 150.959 194.285 150.934 194.31 150.905C194.334 150.875 194.352 150.84 194.363 150.803C194.374 150.766 194.378 150.727 194.374 150.689C194.369 150.65 194.358 150.613 194.339 150.58V150.58Z" fill="#9191E3"/>
<path d="M208.339 148.472C208.262 148.331 208.132 148.226 207.978 148.181C207.824 148.135 207.658 148.153 207.517 148.229L203.729 150.295L202.807 150.797L199.149 152.787L194.842 155.138C194.772 155.176 194.71 155.228 194.66 155.29C194.609 155.352 194.572 155.424 194.549 155.5C194.527 155.577 194.52 155.657 194.528 155.737C194.537 155.816 194.561 155.893 194.599 155.963C194.637 156.033 194.689 156.095 194.751 156.146C194.813 156.196 194.885 156.233 194.962 156.256C195.038 156.278 195.119 156.286 195.198 156.277C195.278 156.269 195.355 156.244 195.425 156.206L203.39 151.866L204.312 151.363L208.1 149.298C208.17 149.259 208.232 149.207 208.281 149.145C208.331 149.083 208.369 149.011 208.391 148.934C208.413 148.858 208.42 148.777 208.411 148.698C208.402 148.619 208.377 148.542 208.339 148.472V148.472Z" fill="#CCCCCC"/>
<path d="M211.526 149.071C211.488 149.001 211.436 148.94 211.373 148.89C211.311 148.84 211.239 148.803 211.163 148.781C211.086 148.759 211.006 148.752 210.926 148.761C210.847 148.77 210.77 148.794 210.7 148.832L204.715 152.096L203.792 152.599L195.824 156.939C195.753 156.977 195.691 157.029 195.641 157.091C195.591 157.153 195.553 157.224 195.53 157.301C195.508 157.378 195.5 157.458 195.509 157.537C195.517 157.617 195.542 157.694 195.58 157.764C195.618 157.834 195.67 157.896 195.733 157.946C195.795 157.996 195.867 158.033 195.943 158.055C196.02 158.078 196.101 158.084 196.18 158.076C196.26 158.067 196.337 158.042 196.406 158.004L204.371 153.663L205.294 153.16L211.283 149.897C211.424 149.819 211.529 149.689 211.575 149.534C211.621 149.379 211.603 149.213 211.526 149.071V149.071Z" fill="#CCCCCC"/>
<path d="M190.597 161.863C192.022 161.863 193.176 160.709 193.176 159.286C193.176 157.863 192.022 156.709 190.597 156.709C189.172 156.709 188.017 157.863 188.017 159.286C188.017 160.709 189.172 161.863 190.597 161.863Z" fill="#CCCCCC"/>
<path d="M192.33 173.773C192.764 173.815 193.194 173.892 193.616 174.003L222.87 148.079L220.978 138.779L234.656 134.092L239.606 150.231C240.006 151.535 239.972 152.933 239.508 154.216C239.045 155.499 238.178 156.597 237.037 157.345L199.846 181.737C199.901 183.415 199.443 185.07 198.533 186.482C197.624 187.894 196.305 188.996 194.753 189.641C193.201 190.286 191.49 190.443 189.846 190.093C188.202 189.743 186.704 188.9 185.551 187.679C184.398 186.457 183.644 184.914 183.391 183.254C183.137 181.594 183.396 179.896 184.132 178.387C184.868 176.877 186.046 175.627 187.511 174.803C188.975 173.979 190.656 173.619 192.33 173.773V173.773Z" fill="#FFB8B8"/>
<path d="M243.007 136.414L234.719 120.603C233.866 118.198 232.111 116.218 229.825 115.082C227.538 113.945 224.899 113.74 222.464 114.511C222.372 114.536 222.284 114.566 222.192 114.599C219.724 115.461 217.7 117.265 216.563 119.616C215.426 121.967 215.269 124.672 216.127 127.139L219.453 144.614C219.548 145.114 219.75 145.588 220.046 146.003C220.341 146.418 220.723 146.764 221.164 147.018C221.647 147.3 222.191 147.461 222.749 147.488C223.209 147.517 223.67 147.453 224.104 147.299L225.883 146.679L237.299 142.707L241.032 141.408C241.513 141.24 241.952 140.971 242.32 140.618C242.688 140.265 242.975 139.837 243.163 139.363C243.35 138.889 243.433 138.38 243.406 137.872C243.379 137.363 243.243 136.866 243.007 136.414V136.414Z" fill="#6D6DC8"/>
<path d="M274.292 197.403H0.419407C0.308173 197.403 0.201495 197.359 0.122841 197.28C0.0441871 197.202 0 197.095 0 196.984C0 196.873 0.0441871 196.766 0.122841 196.688C0.201495 196.609 0.308173 196.565 0.419407 196.565H274.292C274.403 196.565 274.51 196.609 274.589 196.688C274.667 196.766 274.711 196.873 274.711 196.984C274.711 197.095 274.667 197.202 274.589 197.28C274.51 197.359 274.403 197.403 274.292 197.403Z" fill="#3F3D56"/>
<path d="M47.601 189.652V189.862C47.6025 191.282 48.0166 192.671 48.7931 193.861C49.5696 195.051 50.6751 195.99 51.9755 196.565C52.9083 196.982 53.9189 197.196 54.9406 197.193H122.675V189.652H47.601Z" fill="#3F3D56"/>
<path d="M169.967 139.951C168.892 137.734 167.237 135.849 165.177 134.496C164.244 133.878 163.236 133.38 162.179 133.012C160.738 132.51 159.222 132.253 157.695 132.254H92.6873C89.0735 132.258 85.6088 133.694 83.0535 136.247C80.4981 138.8 79.0607 142.26 79.0566 145.87V183.577C79.0554 184.106 79.0862 184.635 79.1489 185.161C79.241 185.947 79.4009 186.723 79.6269 187.482C79.851 188.229 80.1401 188.955 80.4909 189.652C81.6199 191.918 83.3597 193.825 85.5144 195.157C87.6691 196.49 90.1532 197.195 92.6873 197.193H157.695C159.486 197.194 161.258 196.842 162.912 196.158C164.566 195.474 166.069 194.471 167.335 193.207C168.601 191.942 169.605 190.441 170.29 188.789C170.975 187.136 171.327 185.365 171.326 183.577V145.87C171.329 143.82 170.864 141.795 169.967 139.951V139.951Z" fill="#3F3D56"/>
<path d="M128.756 168.075C130.609 168.075 132.111 166.575 132.111 164.724C132.111 162.873 130.609 161.372 128.756 161.372C126.903 161.372 125.401 162.873 125.401 164.724C125.401 166.575 126.903 168.075 128.756 168.075Z" fill="#BABAF5"/>
</g>
<defs>
<clipPath id="clip0">
<rect width="300" height="253.125" fill="white"/>
</clipPath>
</defs>
</svg>
