<svg width="300" height="267" viewBox="0 0 300 267" fill="none" xmlns="http://www.w3.org/2000/svg">
<g clip-path="url(#clip0)">
<path d="M257.819 220.263C252.757 235.089 246.247 249.883 237.908 263.963C237.723 264.28 237.535 264.591 237.347 264.907L216.7 258.375C216.819 258.077 216.949 257.742 217.089 257.377C225.416 235.842 275.658 104.631 273.403 78.7608C273.646 80.8784 281.506 150.958 257.819 220.263Z" fill="#BABAF5"/>
<path d="M241.891 265.223C241.61 265.51 241.322 265.795 241.032 266.073L225.544 261.173C225.753 260.92 225.997 260.621 226.278 260.284C230.865 254.682 244.502 237.91 257.819 220.263C272.13 201.299 286.073 181.327 288.027 173.12C287.635 174.986 275.413 231.794 241.891 265.223Z" fill="#9191E3"/>
<path d="M249.633 46.7517C249.627 46.7517 249.622 46.7533 249.616 46.7535V13.553C249.616 9.9585 248.188 6.51125 245.646 3.96957C243.104 1.4279 239.657 0 236.063 0H132.118C128.524 0 125.077 1.4279 122.535 3.96957C119.993 6.51125 118.565 9.9585 118.565 13.553V30.5733C118.278 30.5794 118.005 30.6977 117.804 30.9027C117.603 31.1077 117.491 31.3833 117.49 31.6703V40.1006C117.491 40.3876 117.603 40.6632 117.804 40.8682C118.005 41.0732 118.278 41.1913 118.565 41.1974V50.029H118.51C118.366 50.029 118.223 50.0574 118.089 50.1127C117.956 50.1679 117.835 50.2489 117.733 50.351C117.631 50.4531 117.55 50.5743 117.494 50.7076C117.439 50.841 117.411 50.984 117.411 51.1284V67.4306C117.411 67.5749 117.439 67.7179 117.494 67.8513C117.55 67.9847 117.631 68.1059 117.733 68.2079C117.835 68.31 117.956 68.391 118.089 68.4462C118.223 68.5015 118.366 68.5299 118.51 68.5299H118.565V75.0046H118.548C118.404 75.0046 118.261 75.0331 118.127 75.0883C117.994 75.1436 117.873 75.2245 117.771 75.3266C117.669 75.4287 117.588 75.5499 117.532 75.6833C117.477 75.8167 117.449 75.9596 117.449 76.104V92.5657C117.449 92.71 117.477 92.853 117.532 92.9864C117.588 93.1198 117.669 93.241 117.771 93.343C117.873 93.4451 117.994 93.5261 118.127 93.5813C118.261 93.6366 118.404 93.665 118.548 93.665H118.565V252.787C118.565 256.381 119.993 259.829 122.535 262.37C125.077 264.912 128.524 266.34 132.118 266.34H236.063C239.657 266.34 243.104 264.912 245.646 262.37C248.188 259.829 249.616 256.381 249.616 252.787V79.0357C249.622 79.0357 249.627 79.0374 249.633 79.0374C249.89 79.0374 250.144 78.9868 250.382 78.8884C250.619 78.79 250.835 78.6458 251.017 78.4641C251.199 78.2823 251.343 78.0665 251.441 77.829C251.54 77.5915 251.59 77.3369 251.59 77.0799V48.7093C251.59 48.1902 251.384 47.6922 251.017 47.3251C250.65 46.958 250.152 46.7517 249.633 46.7517Z" fill="#0C0C4E"/>
<path d="M241.523 17.3467V248.989C241.522 251.749 240.425 254.396 238.473 256.347C236.521 258.298 233.875 259.394 231.115 259.394H137.066C134.306 259.394 131.66 258.298 129.708 256.347C127.756 254.396 126.659 251.749 126.658 248.989V17.3467C126.658 14.5861 127.754 11.9386 129.706 9.98657C131.658 8.03456 134.306 6.93793 137.066 6.93793H151.14V8.76449C151.141 11.0373 152.044 13.2167 153.651 14.8238C155.258 16.4309 157.438 17.3343 159.711 17.3353H207.559C209.829 17.3302 212.004 16.425 213.607 14.8182C215.21 13.2115 216.111 11.0343 216.111 8.76449V6.95691H231.115C233.872 6.95691 236.517 8.05093 238.468 9.99885C240.42 11.9468 241.518 14.5894 241.523 17.3467V17.3467Z" fill="white"/>
<path d="M89.0168 129.979C88.4607 129.764 87.8641 129.673 87.269 129.713C86.674 129.753 86.095 129.923 85.5728 130.211C85.0506 130.499 84.598 130.899 84.2468 131.381C83.8955 131.863 83.6542 132.416 83.5399 133.001L50.0256 151.224L55.9182 157.856L87.0423 137.882C88.0383 138.009 89.0463 137.766 89.8752 137.199C90.7042 136.633 91.2965 135.782 91.5399 134.807C91.7832 133.833 91.6608 132.804 91.1958 131.914C90.7308 131.024 89.9555 130.335 89.0168 129.979H89.0168Z" fill="#FFB8B8"/>
<path d="M80.4695 261.092L84.6456 258.391L76.2141 240.998L70.0504 244.984L80.4695 261.092Z" fill="#FFB8B8"/>
<path d="M95.2078 257.059L82.0827 265.549L78.8027 260.478L87.0463 255.146C88.3409 254.308 89.9152 254.02 91.4228 254.343C92.9304 254.666 94.2478 255.575 95.0852 256.87L95.2078 257.059L95.2078 257.059Z" fill="#2F2E41"/>
<path d="M33.6118 261.721H38.5853L40.9523 242.537H33.6118V261.721Z" fill="#FFB8B8"/>
<path d="M48.1775 266.339H32.5461V260.299H42.3639C43.1273 260.299 43.8833 260.45 44.5887 260.742C45.294 261.034 45.9349 261.462 46.4747 262.002C47.0146 262.542 47.4428 263.183 47.735 263.888C48.0271 264.594 48.1775 265.349 48.1775 266.113V266.339V266.339Z" fill="#2F2E41"/>
<path d="M147.722 37.5915H137.468C137.217 37.5915 136.975 37.4915 136.797 37.3135C136.619 37.1354 136.519 36.894 136.519 36.6422C136.519 36.3904 136.619 36.1489 136.797 35.9709C136.975 35.7928 137.217 35.6928 137.468 35.6928H147.722C147.973 35.6928 148.215 35.7928 148.393 35.9709C148.571 36.1489 148.671 36.3904 148.671 36.6422C148.671 36.894 148.571 37.1354 148.393 37.3135C148.215 37.4915 147.973 37.5915 147.722 37.5915V37.5915Z" fill="#3F3D56"/>
<path d="M147.722 40.2497H137.468C137.217 40.2497 136.975 40.1497 136.797 39.9717C136.619 39.7936 136.519 39.5522 136.519 39.3004C136.519 39.0486 136.619 38.8071 136.797 38.6291C136.975 38.451 137.217 38.351 137.468 38.351H147.722C147.973 38.351 148.215 38.451 148.393 38.6291C148.571 38.8071 148.671 39.0486 148.671 39.3004C148.671 39.5522 148.571 39.7936 148.393 39.9717C148.215 40.1497 147.973 40.2497 147.722 40.2497V40.2497Z" fill="#3F3D56"/>
<path d="M147.722 42.9079H137.468C137.217 42.9079 136.975 42.8079 136.797 42.6299C136.619 42.4518 136.519 42.2104 136.519 41.9586C136.519 41.7068 136.619 41.4653 136.797 41.2873C136.975 41.1092 137.217 41.0092 137.468 41.0092H147.722C147.973 41.0092 148.215 41.1092 148.393 41.2873C148.571 41.4653 148.671 41.7068 148.671 41.9586C148.671 42.2104 148.571 42.4518 148.393 42.6299C148.215 42.8079 147.973 42.9079 147.722 42.9079V42.9079Z" fill="#3F3D56"/>
<path d="M227.199 40.2687H226.854L226.721 40.1585C227.157 39.6382 227.397 38.9808 227.397 38.3016C227.394 37.7428 227.225 37.1975 226.912 36.7346C226.599 36.2716 226.156 35.9119 225.639 35.7008C225.121 35.4898 224.553 35.4369 224.005 35.5488C223.458 35.6608 222.956 35.9326 222.563 36.3298C222.17 36.7271 221.904 37.2319 221.798 37.7805C221.692 38.3292 221.751 38.8969 221.967 39.412C222.184 39.9271 222.548 40.3664 223.014 40.6744C223.481 40.9823 224.028 41.1451 224.587 41.1421C225.264 41.1373 225.919 40.8985 226.44 40.4661L226.569 40.5763V40.9256L228.749 43.1091L229.402 42.456L227.199 40.2687ZM224.587 40.2687C224.198 40.2702 223.817 40.1563 223.493 39.9414C223.168 39.7265 222.915 39.4203 222.765 39.0614C222.614 38.7025 222.574 38.3072 222.648 37.9253C222.723 37.5435 222.909 37.1922 223.183 36.9161C223.457 36.6399 223.807 36.4512 224.188 36.3738C224.569 36.2965 224.965 36.3339 225.325 36.4814C225.685 36.6289 225.993 36.8798 226.21 37.2025C226.428 37.5251 226.545 37.905 226.546 38.294L226.546 38.3016C226.548 38.5584 226.499 38.813 226.402 39.0509C226.305 39.2887 226.162 39.5051 225.981 39.6878C225.801 39.8704 225.586 40.0158 225.349 40.1154C225.113 40.2151 224.859 40.2671 224.602 40.2686C224.597 40.2687 224.592 40.2687 224.587 40.2687H224.587Z" fill="#3F3D56"/>
<path d="M168.61 72.5278H150.19C149.082 72.5278 148.019 72.0877 147.236 71.3043C146.453 70.521 146.013 69.4585 146.013 68.3506C146.013 67.2428 146.453 66.1803 147.236 65.3969C148.019 64.6136 149.082 64.1735 150.19 64.1735H168.61C169.717 64.1735 170.78 64.6136 171.563 65.3969C172.347 66.1803 172.787 67.2428 172.787 68.3506C172.787 69.4585 172.347 70.521 171.563 71.3043C170.78 72.0877 169.717 72.5278 168.61 72.5278V72.5278Z" fill="#0C0C4E"/>
<path d="M225 81.6416H148.291C147.687 81.6416 147.107 81.4016 146.68 80.9743C146.253 80.547 146.013 79.9674 146.013 79.3632C146.013 78.7589 146.253 78.1793 146.68 77.7521C147.107 77.3248 147.687 77.0847 148.291 77.0847H225C225.604 77.0847 226.184 77.3248 226.611 77.7521C227.038 78.1793 227.278 78.7589 227.278 79.3632C227.278 79.9674 227.038 80.547 226.611 80.9743C226.184 81.4016 225.604 81.6416 225 81.6416Z" fill="#E6E6E6"/>
<path d="M176.468 90.7554H148.291C147.687 90.7554 147.107 90.5153 146.68 90.0881C146.253 89.6608 146.013 89.0812 146.013 88.4769C146.013 87.8727 146.253 87.2931 146.68 86.8658C147.107 86.4385 147.687 86.1985 148.291 86.1985H176.468C177.073 86.1985 177.652 86.4385 178.08 86.8658C178.507 87.2931 178.747 87.8727 178.747 88.4769C178.747 89.0812 178.507 89.6608 178.08 90.0881C177.652 90.5153 177.073 90.7554 176.468 90.7554Z" fill="#E6E6E6"/>
<path d="M168.61 173.539H150.19C149.082 173.539 148.019 173.099 147.236 172.316C146.453 171.532 146.013 170.47 146.013 169.362C146.013 168.254 146.453 167.192 147.236 166.408C148.019 165.625 149.082 165.185 150.19 165.185H168.61C169.717 165.185 170.78 165.625 171.563 166.408C172.347 167.192 172.787 168.254 172.787 169.362C172.787 170.47 172.347 171.532 171.563 172.316C170.78 173.099 169.717 173.539 168.61 173.539V173.539Z" fill="#0C0C4E"/>
<path d="M225 182.653H148.291C147.687 182.653 147.107 182.413 146.68 181.986C146.253 181.558 146.013 180.979 146.013 180.375C146.013 179.77 146.253 179.191 146.68 178.763C147.107 178.336 147.687 178.096 148.291 178.096H225C225.604 178.096 226.184 178.336 226.611 178.763C227.038 179.191 227.278 179.77 227.278 180.375C227.278 180.979 227.038 181.558 226.611 181.986C226.184 182.413 225.604 182.653 225 182.653V182.653Z" fill="#E6E6E6"/>
<path d="M176.468 191.767H148.291C147.687 191.767 147.107 191.527 146.68 191.1C146.253 190.672 146.013 190.093 146.013 189.488C146.013 188.884 146.253 188.305 146.68 187.877C147.107 187.45 147.687 187.21 148.291 187.21H176.468C177.073 187.21 177.652 187.45 178.08 187.877C178.507 188.305 178.747 188.884 178.747 189.488C178.747 190.093 178.507 190.672 178.08 191.1C177.652 191.527 177.073 191.767 176.468 191.767V191.767Z" fill="#E6E6E6"/>
<path d="M168.61 220.248H150.19C149.082 220.248 148.019 219.807 147.236 219.024C146.453 218.241 146.013 217.178 146.013 216.07C146.013 214.963 146.453 213.9 147.236 213.117C148.019 212.333 149.082 211.893 150.19 211.893H168.61C169.717 211.893 170.78 212.333 171.563 213.117C172.347 213.9 172.787 214.963 172.787 216.07C172.787 217.178 172.347 218.241 171.563 219.024C170.78 219.807 169.717 220.248 168.61 220.248V220.248Z" fill="#0C0C4E"/>
<path d="M225 229.361H148.291C147.687 229.361 147.107 229.121 146.68 228.694C146.253 228.267 146.013 227.687 146.013 227.083C146.013 226.479 146.253 225.899 146.68 225.472C147.107 225.045 147.687 224.804 148.291 224.804H225C225.604 224.804 226.184 225.045 226.611 225.472C227.038 225.899 227.278 226.479 227.278 227.083C227.278 227.687 227.038 228.267 226.611 228.694C226.184 229.121 225.604 229.361 225 229.361V229.361Z" fill="#E6E6E6"/>
<path d="M176.468 238.475H148.291C147.687 238.475 147.107 238.235 146.68 237.808C146.253 237.381 146.013 236.801 146.013 236.197C146.013 235.592 146.253 235.013 146.68 234.586C147.107 234.158 147.687 233.918 148.291 233.918H176.468C177.073 233.918 177.652 234.158 178.08 234.586C178.507 235.013 178.747 235.592 178.747 236.197C178.747 236.801 178.507 237.381 178.08 237.808C177.652 238.235 177.073 238.475 176.468 238.475V238.475Z" fill="#E6E6E6"/>
<path d="M235.823 149.805H89.2405C88.3847 149.804 87.5643 149.464 86.9591 148.859C86.354 148.254 86.0136 147.433 86.0126 146.578V106.705C86.0136 105.849 86.354 105.028 86.9591 104.423C87.5642 103.818 88.3847 103.478 89.2405 103.477H235.823C236.679 103.478 237.499 103.818 238.104 104.423C238.709 105.028 239.05 105.849 239.051 106.705V146.578C239.05 147.433 238.709 148.254 238.104 148.859C237.499 149.464 236.679 149.804 235.823 149.805V149.805Z" fill="#6D6DC8"/>
<path d="M36.5436 197.243C37.9449 207.074 30.5246 250.631 31.3487 250.627L42.0044 250.57C42.3841 249.841 47.2753 226.339 48.8094 222.568C50.9512 217.335 53.112 212.038 53.955 206.448C54.7487 201.2 54.3575 195.853 53.8411 190.571C53.8651 190.414 53.8514 190.253 53.8011 190.102C53.7508 189.951 53.6654 189.815 53.5519 189.703C53.4384 189.592 53.3001 189.509 53.1483 189.462C52.9965 189.415 52.8357 189.404 52.6791 189.431L38.3816 188.695C35.4348 188.543 34.736 187.897 35.1841 190.791C35.4955 192.952 36.2322 195.055 36.5436 197.243Z" fill="#0C0C4E"/>
<path d="M39.3538 173.338C36.4487 177.515 33.4032 182.323 34.3677 187.324C35.1006 191.121 37.9943 194.064 40.7247 196.817C51.6386 207.777 73.1589 256.133 73.1589 256.133C83.5443 249.488 72.9114 256.323 83.45 249.298C82.5158 249.226 61.2918 172.932 59.5335 172.829C52.4209 172.358 46.2842 171.663 39.3538 173.338Z" fill="#0C0C4E"/>
<path d="M50.8444 133.579C49.3688 132.263 38.9992 128.205 38.9992 128.205C38.8085 128.18 38.615 128.186 38.4262 128.223C37.8361 128.372 37.5669 129.105 37.6929 129.698C37.8189 130.291 36.7848 140.036 36.5184 144.468C36.0515 152.202 40.6062 169.722 40.5661 170.257C40.41 172.168 39.5735 173.959 38.2085 175.305C38.5633 175.745 61.094 176.628 62.6265 177.15C62.9359 176.757 60.882 148.968 60.7875 147.398C60.6299 145.015 52.7923 135.384 50.8444 133.579Z" fill="#DCDCFA"/>
<path d="M34.7745 193.878C35.3084 193.612 35.7776 193.232 36.1489 192.766C36.5203 192.299 36.7849 191.757 36.924 191.177C37.0631 190.597 37.0733 189.993 36.954 189.409C36.8346 188.825 36.5886 188.274 36.2333 187.795L45.7395 135.185L36.8686 135.068L30.267 187.092C29.502 187.743 29.002 188.651 28.8619 189.645C28.7218 190.639 28.9513 191.651 29.5069 192.487C30.0625 193.323 30.9056 193.927 31.8764 194.183C32.8473 194.439 33.8784 194.331 34.7745 193.878H34.7745Z" fill="#FFB8B8"/>
<path d="M34.6981 139.089C34.3281 139.116 33.9596 139.02 33.65 138.816C33.1221 138.364 37.4284 131.449 38.2791 131.346C41.0474 131.027 43.8955 130.921 46.5803 131.669C49.2652 132.417 51.7905 134.118 52.9905 136.636C53.4917 137.684 49.8576 142.959 48.2057 142.184C46.2272 141.257 37.3031 139.154 34.6981 139.089Z" fill="#DCDCFA"/>
<path d="M44.4691 127.639C49.9721 127.639 54.4332 123.178 54.4332 117.675C54.4332 112.172 49.9721 107.711 44.4691 107.711C38.9661 107.711 34.505 112.172 34.505 117.675C34.505 123.178 38.9661 127.639 44.4691 127.639Z" fill="#FFB8B8"/>
<path d="M34.6822 134.149C36.0669 134.294 37.4658 134.089 38.7509 133.554C40.036 133.018 41.1663 132.169 42.0384 131.084C42.9106 129.999 43.4966 128.712 43.743 127.342C43.9895 125.972 43.8883 124.562 43.4489 123.241C43.0524 122.049 42.3896 120.956 42.0264 119.753C41.6633 118.55 41.6534 117.128 42.4588 116.164C44.0347 114.278 47.072 115.464 49.5013 115.089C52.0899 114.69 54.0759 112.206 54.283 109.595C54.4902 106.984 53.1292 104.4 51.1032 102.74C49.0773 101.08 46.4644 100.262 43.8576 100.006C40.5099 99.6775 37.134 100.216 34.0547 101.57C30.9755 102.924 28.2968 105.048 26.2764 107.738C24.2561 110.427 22.9623 113.591 22.5195 116.926C22.0767 120.261 22.4999 123.653 23.7483 126.776C24.8374 129.501 26.6162 132.039 29.1429 133.531C31.6696 135.024 35.0067 135.31 37.525 133.804" fill="#2F2E41"/>
<path d="M141.371 121.704H115.908C114.29 121.704 112.975 119.831 112.975 117.527C112.975 115.224 114.29 113.35 115.908 113.35H141.371C142.988 113.35 144.304 115.224 144.304 117.527C144.304 119.831 142.988 121.704 141.371 121.704Z" fill="white"/>
<path d="M209.81 130.818H115.253C114.649 130.818 114.069 130.578 113.642 130.151C113.215 129.724 112.975 129.144 112.975 128.54C112.975 127.935 113.215 127.356 113.642 126.929C114.069 126.501 114.649 126.261 115.253 126.261H209.81C210.414 126.261 210.994 126.501 211.421 126.929C211.849 127.356 212.089 127.935 212.089 128.54C212.089 129.144 211.849 129.724 211.421 130.151C210.994 130.578 210.414 130.818 209.81 130.818V130.818Z" fill="#DCDCFA"/>
<path d="M161.279 139.932H115.253C114.649 139.932 114.069 139.692 113.642 139.265C113.215 138.837 112.975 138.258 112.975 137.654C112.975 137.049 113.215 136.47 113.642 136.042C114.069 135.615 114.649 135.375 115.253 135.375H161.279C161.883 135.375 162.462 135.615 162.89 136.042C163.317 136.47 163.557 137.049 163.557 137.654C163.557 138.258 163.317 138.837 162.89 139.265C162.462 139.692 161.883 139.932 161.279 139.932V139.932Z" fill="#DCDCFA"/>
<path d="M300 265.817H0V266.576H300V265.817Z" fill="#3F3D56"/>
<path d="M216.44 89.7776C214.246 87.623 211.27 86.4128 208.167 86.413C205.064 86.4133 202.088 87.6241 199.894 89.779C197.7 91.934 196.468 94.8567 196.467 97.9043C196.467 100.952 197.699 103.875 199.893 106.03L216.44 122.283L232.987 106.03C235.181 103.875 236.413 100.952 236.413 97.9043C236.413 94.8567 235.18 91.934 232.986 89.779C230.792 87.6241 227.816 86.4133 224.713 86.413C221.611 86.4128 218.635 87.623 216.44 89.7776V89.7776Z" fill="#FD4F56"/>
</g>
<defs>
<clipPath id="clip0">
<rect width="300" height="266.576" fill="white"/>
</clipPath>
</defs>
</svg>
