<svg width="300" height="235" viewBox="0 0 300 235" fill="none" xmlns="http://www.w3.org/2000/svg">
<g clip-path="url(#clip0)">
<path d="M118.402 62.1363C118.264 62.4193 118.149 62.7128 118.057 63.014L91.0832 71.1593L86.0889 66.4708L78.0416 73.0977L86.0779 82.2586C86.7272 82.9987 87.5985 83.5078 88.5611 83.7095C89.5237 83.9112 90.5256 83.7946 91.4165 83.3772L120.45 69.7743C121.459 70.4443 122.649 70.7905 123.859 70.7668C125.07 70.7431 126.245 70.3507 127.227 69.6417C128.21 68.9328 128.954 67.9409 129.36 66.7979C129.766 65.655 129.816 64.4153 129.502 63.2436C129.188 62.0719 128.525 61.0238 127.602 60.2387C126.678 59.4535 125.539 58.9686 124.334 58.8484C123.129 58.7282 121.916 58.9784 120.856 59.5657C119.797 60.153 118.941 61.0497 118.402 62.1363L118.402 62.1363Z" fill="#FFB6B6"/>
<path d="M90.1879 71.4888L80.2641 79.7632C79.9818 79.9986 79.6521 80.1703 79.2975 80.2666C78.9429 80.3628 78.5718 80.3814 78.2095 80.321C77.8471 80.2606 77.502 80.1227 77.1976 79.9166C76.8933 79.7105 76.6368 79.4412 76.4457 79.1268L69.7509 68.1123C68.5579 66.6579 67.9889 64.789 68.1687 62.9152C68.3486 61.0413 69.2625 59.3152 70.7102 58.1153C72.158 56.9153 74.0215 56.3393 75.8924 56.5135C77.7632 56.6877 79.4889 57.5978 80.6912 59.0445L90.2568 67.6111C90.5306 67.8565 90.7484 68.1581 90.8954 68.4954C91.0424 68.8327 91.1151 69.1978 91.1085 69.5658C91.102 69.9337 91.0163 70.296 90.8575 70.6279C90.6986 70.9597 90.4702 71.2533 90.1879 71.4888V71.4888Z" fill="#202076"/>
<path d="M116.837 209.257L121.156 206.5C121.355 204.079 121.416 201.65 121.342 199.222L119.101 199.796L121.313 198.384C121.191 195.384 120.92 193.404 120.92 193.404C120.92 193.404 112.187 199.088 106.617 206.792L107.567 213.307L105.301 208.751C104.722 209.68 104.202 210.645 103.743 211.64C99.1541 221.684 98.7082 231.329 102.747 233.181C106.786 235.033 113.781 228.392 118.37 218.348C119.754 215.117 120.636 211.693 120.985 208.195L116.837 209.257Z" fill="#BABAF5"/>
<path d="M125.709 218.952L130.829 218.829C132.248 216.86 133.554 214.812 134.743 212.695L132.529 212.026L135.15 211.963C136.594 209.331 137.383 207.496 137.383 207.496C137.383 207.496 126.975 207.839 118.232 211.549L115.684 217.619L116.096 212.545C115.12 213.04 114.177 213.597 113.271 214.211C104.161 220.433 98.8033 228.458 101.305 232.136C103.807 235.813 113.221 233.75 122.332 227.528C125.183 225.48 127.705 223.005 129.808 220.191L125.709 218.952Z" fill="#9191E3"/>
<path d="M95.4492 228.011L101.039 228.01L103.136 206.227L95.4482 206.409L95.4492 228.011Z" fill="#FFB6B6"/>
<path d="M94.0234 226.182L105.031 226.182H105.032C106.892 226.182 108.677 226.922 109.992 228.24C111.308 229.559 112.047 231.346 112.047 233.21V233.439L94.0238 233.439L94.0234 226.182Z" fill="#2F2E41"/>
<path d="M29.5043 211.844L33.1705 216.072L51.1899 203.916L45.7789 197.676L29.5043 211.844Z" fill="#FFB6B6"/>
<path d="M29.9469 209.567L37.167 217.892L37.1673 217.892C38.3874 219.3 38.9997 221.135 38.8694 222.994C38.7392 224.854 37.877 226.585 36.4727 227.808L36.3006 227.958L24.4793 214.327L29.9469 209.567Z" fill="#2F2E41"/>
<path d="M0.542867 234.127H152.959C153.103 234.127 153.241 234.07 153.342 233.968C153.444 233.866 153.501 233.727 153.501 233.583C153.501 233.439 153.444 233.3 153.342 233.198C153.241 233.096 153.103 233.039 152.959 233.039H0.542867C0.471443 233.039 0.400677 233.053 0.33463 233.08C0.268584 233.107 0.208556 233.147 0.157979 233.198C0.107401 233.248 0.0672711 233.308 0.0398906 233.375C0.0125102 233.441 -0.00158691 233.511 -0.00158691 233.583C-0.00158691 233.655 0.0125102 233.725 0.0398906 233.792C0.0672711 233.858 0.107401 233.918 0.157979 233.968C0.208556 234.019 0.268584 234.059 0.33463 234.086C0.400677 234.113 0.471443 234.127 0.542867 234.127V234.127Z" fill="#3F3D56"/>
<path d="M83.1684 176.735L94.929 220.388H104.048L102.045 172.646L96.7584 126.131L77.5565 125.108L83.1684 176.735Z" fill="#0C0C4E"/>
<path d="M62.7615 126.131C62.7615 126.131 61.7412 132.776 65.8225 139.932C69.9039 147.088 67.353 171.112 67.353 171.112L32.9221 205.77C32.9221 205.77 38.2731 215.071 40.824 214.56C43.3749 214.049 83.6786 181.335 83.6786 181.335L96.7584 128.175L62.7615 126.131Z" fill="#0C0C4E"/>
<path d="M81.7464 48.7516C88.2269 48.7516 93.4804 43.4881 93.4804 36.9951C93.4804 30.5022 88.2269 25.2386 81.7464 25.2386C75.2659 25.2386 70.0124 30.5022 70.0124 36.9951C70.0124 43.4881 75.2659 48.7516 81.7464 48.7516Z" fill="#FFB6B6"/>
<path d="M81.251 55.4811C81.251 55.4811 67.573 50.2932 67.573 51.8267C67.573 53.3601 54.0885 66.3261 57.1496 83.1941C60.2106 100.062 63.7818 108.24 62.2513 117.441C60.7208 126.642 61.7411 128.687 61.7411 128.687C61.7411 128.687 97.2686 131.753 97.7787 128.175C98.2889 124.597 96.2968 119.14 96.2968 117.607C96.2968 116.073 82.1997 59.4273 81.251 55.4811Z" fill="#202076"/>
<path d="M76.4354 44.0595C77.3854 43.5563 78.4888 43.4526 79.5171 43.1398C83.1957 42.0207 85.6599 37.8543 84.8732 34.0841C84.7278 33.6005 84.6625 33.0963 84.68 32.5916C84.8175 31.4749 85.9579 30.7544 87.0514 30.4986C88.145 30.2427 89.3085 30.2799 90.3537 29.8685C91.9675 29.2332 93.0394 27.5716 93.2718 25.8501C93.4388 24.1072 93.0514 22.3561 92.1651 20.8471L91.7701 21.986C91.1677 21.475 90.7206 20.805 90.4795 20.052C90.0306 20.1275 89.6086 20.3173 89.2539 20.6031C88.8991 20.8889 88.6236 21.2612 88.4536 21.6843C87.8196 22.0588 87.7282 20.5205 87.0279 20.2936C86.7199 20.2551 86.4085 20.332 86.1537 20.5096C84.7425 21.1691 83.1029 20.6052 81.5891 20.2397C78.9678 19.6097 76.2353 19.6065 73.6124 20.2303C71.8699 20.6467 70.1452 21.3718 68.8983 22.6605C67.9231 23.7698 67.1739 25.0596 66.693 26.4572C65.3557 29.8293 64.4722 33.478 64.9137 37.0795C65.2813 40.0267 66.5119 42.7987 68.4503 45.046C69.46 46.2116 72.7544 50.2781 74.5608 49.5848C76.8305 48.7136 73.7611 45.4762 76.4354 44.0595Z" fill="#2F2E41"/>
<path opacity="0.2" d="M96.3409 146.038L82.9157 181.305L83.5939 181.564L97.0192 146.297L96.3409 146.038Z" fill="black"/>
<path d="M125.322 56.852C124.468 56.853 123.649 57.1934 123.045 57.7984C122.441 58.4035 122.102 59.2238 122.101 60.0795V95.9579C122.102 96.8136 122.441 97.6339 123.045 98.239C123.649 98.844 124.468 99.1844 125.322 99.1854H296.779C297.633 99.1844 298.452 98.844 299.055 98.239C299.659 97.6339 299.999 96.8136 300 95.9579V60.0795C299.999 59.2238 299.659 58.4035 299.055 57.7984C298.452 57.1934 297.633 56.853 296.779 56.852L125.322 56.852Z" fill="#CDCDFF"/>
<path d="M126.48 59.3687C125.985 59.3692 125.51 59.5665 125.16 59.9173C124.81 60.2681 124.613 60.7438 124.612 61.2399V94.7974C124.613 95.2936 124.81 95.7692 125.16 96.12C125.51 96.4708 125.985 96.6681 126.48 96.6687H295.62C296.116 96.6681 296.59 96.4708 296.94 96.12C297.29 95.7692 297.487 95.2935 297.488 94.7974V61.2399C297.487 60.7439 297.29 60.2682 296.94 59.9174C296.59 59.5666 296.116 59.3693 295.62 59.3687H126.48Z" fill="white" fill-opacity="0.9"/>
<path d="M285.001 87.4666C285.804 87.4646 286.573 87.144 287.14 86.5749C287.708 86.0058 288.027 85.2346 288.028 84.4302C288.029 83.6259 287.712 82.8539 287.146 82.2832C286.58 81.7126 285.812 81.3899 285.009 81.3857C285.006 81.3857 285.003 81.3857 285.001 81.3857H141.938C141.135 81.389 140.367 81.7107 139.8 82.2806C139.234 82.8504 138.916 83.6219 138.916 84.4262C138.916 85.2304 139.234 86.0019 139.8 86.5717C140.367 87.1416 141.135 87.4634 141.938 87.4666H285.001Z" fill="#4141A4"/>
<path d="M203.498 74.2573C203.897 74.2578 204.292 74.1795 204.661 74.027C205.029 73.8744 205.364 73.6505 205.647 73.3681C205.929 73.0857 206.153 72.7504 206.305 72.3813C206.458 72.0121 206.537 71.6165 206.537 71.2169C206.537 70.8173 206.458 70.4216 206.305 70.0525C206.153 69.6833 205.929 69.348 205.647 69.0656C205.364 68.7832 205.029 68.5593 204.661 68.4068C204.292 68.2542 203.897 68.1759 203.498 68.1764H141.938C141.539 68.1759 141.144 68.2542 140.776 68.4068C140.407 68.5593 140.072 68.7832 139.79 69.0656C139.508 69.348 139.284 69.6833 139.131 70.0525C138.978 70.4216 138.9 70.8173 138.9 71.2169C138.9 71.6165 138.978 72.0121 139.131 72.3813C139.284 72.7504 139.508 73.0857 139.79 73.3681C140.072 73.6505 140.407 73.8744 140.776 74.027C141.144 74.1795 141.539 74.2578 141.938 74.2573H203.498Z" fill="#0C0C4E"/>
<path d="M150.382 126.079C149.777 126.079 149.198 126.32 148.77 126.748C148.343 127.177 148.103 127.757 148.102 128.363V153.753C148.103 154.359 148.343 154.939 148.77 155.368C149.198 155.796 149.777 156.037 150.382 156.037H271.719C272.323 156.037 272.903 155.796 273.33 155.368C273.758 154.939 273.998 154.359 273.999 153.753V128.363C273.998 127.757 273.758 127.177 273.33 126.748C272.903 126.32 272.323 126.079 271.719 126.079H150.382Z" fill="#DCDCFA"/>
<path d="M151.201 127.86C150.851 127.86 150.515 128 150.267 128.248C150.019 128.496 149.88 128.833 149.879 129.184V152.932C149.88 153.283 150.019 153.62 150.267 153.868C150.515 154.116 150.851 154.256 151.201 154.256H270.899C271.25 154.256 271.586 154.116 271.833 153.868C272.081 153.62 272.221 153.283 272.221 152.932V129.184C272.221 128.833 272.081 128.496 271.833 128.248C271.586 128 271.25 127.86 270.899 127.86H151.201Z" fill="white"/>
<path d="M263.384 147.744C263.953 147.745 264.5 147.518 264.903 147.116C265.306 146.713 265.533 146.166 265.533 145.595C265.534 145.025 265.309 144.477 264.907 144.073C264.505 143.669 263.959 143.442 263.39 143.441C263.388 143.441 263.386 143.441 263.384 143.441H162.141C161.572 143.442 161.026 143.669 160.624 144.072C160.222 144.475 159.996 145.022 159.996 145.592C159.996 146.163 160.222 146.709 160.624 147.113C161.026 147.516 161.572 147.743 162.141 147.744H263.384Z" fill="#E6E6E6"/>
<path d="M205.706 138.396C205.988 138.397 206.268 138.341 206.529 138.233C206.79 138.125 207.027 137.967 207.227 137.767C207.426 137.567 207.585 137.33 207.693 137.069C207.801 136.807 207.857 136.527 207.857 136.244C207.857 135.962 207.801 135.682 207.693 135.42C207.585 135.159 207.426 134.922 207.227 134.722C207.027 134.522 206.79 134.364 206.529 134.256C206.268 134.148 205.988 134.092 205.706 134.093H162.141C161.858 134.092 161.579 134.148 161.318 134.256C161.057 134.364 160.82 134.522 160.62 134.722C160.42 134.922 160.262 135.159 160.154 135.42C160.046 135.682 159.99 135.962 159.99 136.244C159.99 136.527 160.046 136.807 160.154 137.069C160.262 137.33 160.42 137.567 160.62 137.767C160.82 137.967 161.057 138.125 161.318 138.233C161.579 138.341 161.858 138.397 162.141 138.396H205.706Z" fill="#E4E4E4"/>
<path d="M150.382 0C149.777 0.000710867 149.198 0.241578 148.77 0.669763C148.343 1.09795 148.103 1.67849 148.102 2.28403V27.6747C148.103 28.2802 148.343 28.8608 148.77 29.289C149.198 29.7171 149.777 29.958 150.382 29.9587H271.719C272.323 29.958 272.903 29.7171 273.33 29.289C273.758 28.8608 273.998 28.2802 273.999 27.6747V2.28403C273.998 1.67849 273.758 1.09795 273.33 0.669763C272.903 0.241578 272.323 0.000710867 271.719 0H150.382Z" fill="#DCDCFA"/>
<path d="M151.201 1.78107C150.851 1.78142 150.515 1.92104 150.267 2.1693C150.019 2.41756 149.88 2.75419 149.879 3.10531V26.8534C149.88 27.2046 150.019 27.5412 150.267 27.7894C150.515 28.0377 150.851 28.1773 151.201 28.1777H270.899C271.25 28.1773 271.586 28.0377 271.833 27.7894C272.081 27.5411 272.221 27.2045 272.221 26.8534V3.10531C272.221 2.75424 272.081 2.41763 271.833 2.16936C271.586 1.92109 271.25 1.78145 270.899 1.78107H151.201Z" fill="white"/>
<path d="M263.384 21.6656C263.953 21.6661 264.5 21.44 264.903 21.037C265.306 20.6341 265.533 20.0873 265.533 19.5168C265.534 18.9463 265.309 18.3989 264.907 17.9949C264.505 17.5908 263.959 17.3633 263.39 17.3622C263.388 17.3622 263.386 17.3622 263.384 17.3622H162.141C161.572 17.363 161.026 17.5901 160.624 17.9935C160.222 18.3969 159.996 18.9438 159.996 19.5139C159.996 20.084 160.222 20.6308 160.624 21.0343C161.026 21.4377 161.572 21.6648 162.141 21.6656H263.384Z" fill="#E6E6E6"/>
<path d="M205.706 12.3176C205.988 12.318 206.268 12.2626 206.529 12.1547C206.79 12.0467 207.027 11.8883 207.227 11.6885C207.426 11.4886 207.585 11.2513 207.693 10.99C207.801 10.7287 207.857 10.4487 207.857 10.1659C207.857 9.88303 207.801 9.60297 207.693 9.34171C207.585 9.08045 207.426 8.84311 207.227 8.64327C207.027 8.44342 206.79 8.28499 206.529 8.17704C206.268 8.0691 205.988 8.01375 205.706 8.01416H162.141C161.858 8.01375 161.579 8.0691 161.318 8.17704C161.057 8.28499 160.82 8.44342 160.62 8.64327C160.42 8.84311 160.262 9.08045 160.154 9.34171C160.046 9.60297 159.99 9.88303 159.99 10.1659C159.99 10.4487 160.046 10.7287 160.154 10.99C160.262 11.2513 160.42 11.4886 160.62 11.6885C160.82 11.8883 161.057 12.0467 161.318 12.1547C161.579 12.2626 161.858 12.318 162.141 12.3176H205.706Z" fill="#E4E4E4"/>
<path d="M114.648 82.7339C114.421 82.9518 114.211 83.1873 114.021 83.4382L85.8993 81.7526L82.8276 75.6249L72.9916 79.0608L77.3772 90.4382C77.7315 91.3573 78.3738 92.1365 79.2078 92.6587C80.0417 93.181 81.0222 93.4182 82.002 93.3346L113.938 90.6106C114.654 91.5886 115.651 92.3249 116.795 92.7214C117.94 93.118 119.178 93.156 120.344 92.8306C121.511 92.5051 122.551 91.8315 123.326 90.8994C124.101 89.9673 124.574 88.8208 124.683 87.6125C124.792 86.4042 124.531 85.1913 123.935 84.1351C123.34 83.0789 122.437 82.2296 121.347 81.7C120.258 81.1703 119.033 80.9856 117.837 81.1703C116.64 81.355 115.527 81.9004 114.648 82.7339L114.648 82.7339Z" fill="#FFB6B6"/>
<path d="M84.9455 81.7521L72.7807 86.0852C72.4346 86.2085 72.066 86.2556 71.7001 86.2233C71.3342 86.191 70.9795 86.0801 70.6602 85.898C70.3409 85.716 70.0646 85.4672 69.8499 85.1685C69.6353 84.8698 69.4874 84.5283 69.4164 84.1672L66.9285 71.5142C66.3103 69.7366 66.4205 67.786 67.235 66.0898C68.0495 64.3935 69.5019 63.0899 71.274 62.4645C73.046 61.8392 74.9932 61.9431 76.689 62.7535C78.3847 63.5639 79.6907 65.0148 80.3207 66.7881L86.3463 78.1368C86.5188 78.4618 86.6192 78.8202 86.641 79.1876C86.6627 79.555 86.6051 79.9227 86.4722 80.2658C86.3392 80.6089 86.134 80.9193 85.8706 81.1758C85.6071 81.4323 85.2916 81.6289 84.9455 81.7521H84.9455Z" fill="#202076"/>
<path d="M126.745 68.3466C131.026 68.3466 134.496 64.8698 134.496 60.5809C134.496 56.292 131.026 52.8152 126.745 52.8152C122.465 52.8152 118.995 56.292 118.995 60.5809C118.995 64.8698 122.465 68.3466 126.745 68.3466Z" fill="#01C488"/>
</g>
<defs>
<clipPath id="clip0">
<rect width="300" height="234.127" fill="white"/>
</clipPath>
</defs>
</svg>
